<svg width="80" height="80" viewBox="0 0 80 80" fill="none" xmlns="http://www.w3.org/2000/svg">
<rect width="80" height="80" rx="40" fill="#36115F"/>
<path d="M24.59 24.9999C27.6372 21.8893 31.4529 19.6399 35.65 18.4799C42.21 16.8499 47.46 17.4799 51.02 19.7299C54.58 21.9799 55.65 24.0999 55.65 24.0999L58 22.3499C58 22.3499 55.69 16.8499 60.57 15.5399C65.45 14.2299 66.38 18.2299 66.19 21.3499C66 24.4699 63.84 25.0999 63 25.2299C62.0863 25.219 61.1795 25.0706 60.31 24.7899L57.63 28.7899C58.5478 30.7352 59.0517 32.8498 59.11 34.9999C59.2119 36.8601 59.1752 38.7252 59 40.5799C59 40.5799 62.59 42.0799 62.71 42.0799C62.83 42.0799 65.63 41.0799 66.63 41.9099C67.63 42.7399 67.34 43.4999 67.34 43.4999C67.34 43.4999 69.34 43.4999 68.88 45.2499C68.801 45.7098 68.6062 46.1421 68.3141 46.5059C68.0219 46.8698 67.642 47.1534 67.21 47.3299C67.4777 47.4708 67.6797 47.7106 67.7731 47.9982C67.8665 48.2859 67.8439 48.5987 67.71 48.8699C67.3922 49.4203 66.8866 49.8376 66.2859 50.0452C65.6852 50.2528 65.0298 50.2367 64.44 49.9999C63.3493 49.2146 62.534 48.1053 62.11 46.8299C61.9632 46.3273 61.866 45.8115 61.82 45.2899L58.65 44.2899C58.65 44.2899 56.07 52.9099 54.94 56.4499C53.81 59.9899 53.15 62.2899 53.15 62.2899C53.15 62.2899 57.02 62.2899 57.48 64.1999C57.94 66.1099 57.9 69.1199 57.48 69.4099C57.06 69.6999 52.48 70.0799 49.07 70.0799C45.66 70.0799 44.53 69.2899 44.57 68.7499C44.61 68.2099 44.57 61.1999 44.32 61.0799C42.9918 60.9149 41.6482 60.9149 40.32 61.0799C38.65 61.2399 37.44 61.6999 37.4 62.0799C37.36 62.4599 37.65 69.3699 37.4 69.8299C37.15 70.2899 31.15 70.7799 27.23 70.8299C23.31 70.8799 22.65 70.8299 22.65 70.4099C22.65 69.9899 21.98 65.4099 23.28 64.6999C24.798 64.169 26.3773 63.833 27.98 63.6999C27.98 63.6999 25.11 55.8699 23.69 51.9499C22.27 48.0299 21.32 45.0299 21.32 45.0299L18.07 45.9999C18.07 45.9999 18.36 47.6199 17.57 48.2099C16.78 48.7999 15.32 49.2099 14.57 48.2099C14.3626 47.9082 14.2245 47.5644 14.1657 47.203C14.1069 46.8417 14.1289 46.4718 14.23 46.1199C13.8161 45.8705 13.4753 45.5164 13.2418 45.0933C13.0083 44.6702 12.8904 44.193 12.9 43.7099C13.11 42.2499 13.69 41.7099 14.03 41.5399C14.3135 41.4649 14.6076 41.4379 14.9 41.4599C14.9 41.4599 15.77 39.8299 17 40.1599C17.3303 40.2176 17.6339 40.3783 17.8674 40.619C18.1009 40.8597 18.2523 41.168 18.3 41.4999L20.55 40.6599C20.0014 38.3634 19.9571 35.9752 20.42 33.6599C20.7325 31.746 21.5198 29.941 22.71 28.4099L18.3 23.7899C17.7074 24.2103 17.0369 24.5083 16.3277 24.6662C15.6186 24.8242 14.885 24.8391 14.17 24.7099C12 24.1599 10 21.9999 11.73 18.7099C13.46 15.4199 19 15.1199 20.36 16.9999C21.72 18.8799 20.36 21.3299 20.36 21.3299L24.59 24.9999Z" fill="#1D1D1B"/>
<path d="M16.32 42.37L15.77 41.5C15.77 41.5 15.98 40.5 16.82 40.87C17.66 41.24 17.82 42.46 17.94 42.41C18.06 42.36 20.44 41.46 20.57 41.71C20.7 41.96 21.11 44.12 21.11 44.12C21.11 44.12 17.11 45.12 17.11 45.37C17.11 45.62 17.44 47 16.9 47.46C16.36 47.92 15.57 47.96 15.4 47.62C15.23 47.28 15.11 46.46 15.4 46.41C15.69 46.36 15.98 46.21 15.98 46.08C15.98 45.95 15.9 45.37 15.9 45.37C15.9 45.37 14.9 45.71 14.4 45.16C13.9 44.61 13.48 43.08 14 42.71C14.2186 42.5433 14.4819 42.4457 14.7563 42.4297C15.0306 42.4137 15.3035 42.4799 15.54 42.62C15.73 42.87 16.32 42.37 16.32 42.37Z" fill="#DDC07C"/>
<path d="M20.15 42.4099C20.23 42.5399 20.44 43.1199 20.23 43.2499C19.9755 43.3347 19.7083 43.3753 19.44 43.3699C19.44 43.3699 19.07 42.8299 19.23 42.7099C19.5245 42.5757 19.8331 42.4751 20.15 42.4099Z" fill="#1D1D1B"/>
<path d="M16.48 17.0001C18.21 16.6801 19.69 17.4101 19.94 19.0001C20.19 20.5901 18.11 23.0001 16.69 23.5801C15.27 24.1601 13.36 24.0401 12.57 22.8301C11.78 21.6201 11.52 17.9101 16.48 17.0001Z" fill="#FAB900"/>
<path d="M20 22.21C21.4251 23.3728 22.7621 24.6396 24 26C23.8159 26.4651 23.5631 26.8999 23.25 27.29C23.25 27.29 19 23.62 19.15 23.41C19.3 23.2 20 22.21 20 22.21Z" fill="#DDC07C"/>
<path d="M60.9 16.7499C62.31 16.2899 64.73 16.5399 65.27 19.8299C65.81 23.1199 63.77 24.3699 61.73 23.9599C60.8473 23.8006 60.0588 23.3103 59.5254 22.5892C58.992 21.8681 58.754 20.9706 58.86 20.0799C58.94 18.2499 59.73 17.1199 60.9 16.7499Z" fill="#FAB900"/>
<path d="M58.52 23.1599C58.65 23.3299 59.73 24.1599 59.61 24.3299C59.49 24.4999 57.32 27.3299 57.32 27.3299C56.9418 26.6144 56.6078 25.8763 56.32 25.1199C56.36 24.9999 58.52 23.1599 58.52 23.1599Z" fill="#DDC07C"/>
<path d="M33.27 20.71C35.71 19.59 41.94 18.79 46.27 19.46C50.6 20.13 55 25.33 56 29C56.6398 31.4887 57.0878 34.0228 57.34 36.58C57.34 36.58 53.71 34.42 53.54 34.58C53.37 34.74 53.34 35.33 53.46 35.42C53.58 35.51 57.25 37.08 57.34 37.42C57.43 37.76 57.34 40 57.34 40C56.162 39.4026 54.9499 38.8751 53.71 38.42C53.63 38.54 53.25 39.04 53.71 39.17C54.9196 39.7341 56.0774 40.4033 57.17 41.17C57.17 41.33 56.84 43.87 56.84 43.87C56.84 43.87 54.09 42.33 53.96 42.37C53.83 42.41 53.67 42.96 53.84 43C54.01 43.04 56.71 44.67 56.67 44.92C56.63 45.17 53 56.75 52.86 56.79C52.1201 56.5239 51.3957 56.2167 50.69 55.87C50.69 55.87 50.36 56.46 50.52 56.54C50.68 56.62 52.65 57.41 52.52 57.62C52.39 57.83 52.14 58.62 52.14 58.62C51.4006 58.1844 50.6202 57.8227 49.81 57.54C49.68 57.66 49.47 57.96 49.68 58.12C50.4724 58.4412 51.2469 58.805 52 59.21C52 59.37 52 60.04 51.88 60.04C51.062 59.6422 50.2204 59.2948 49.36 59C49.15 59.08 48.9 59.5 49.15 59.66C49.4 59.82 51.61 60.75 51.57 61C51.4695 61.3007 51.3423 61.5918 51.19 61.87C50.4653 61.3972 49.7141 60.9665 48.94 60.58C48.82 60.58 48.65 61.2 48.77 61.29C49.4733 61.6604 50.1425 62.0921 50.77 62.58C50.77 62.7 48.11 62.87 48.07 63.2C47.995 63.502 47.995 63.8179 48.07 64.12C48.15 64.29 51.07 64.12 52.9 64.37C54.73 64.62 55.53 64.58 55.61 65.04C55.69 65.5 55.9 68.33 55.61 68.41C55.32 68.49 49.9 68.41 48.53 68.33C47.16 68.25 46.4 68 46.4 67.75C46.4 67.5 46.32 60 46.11 59.75C45.9 59.5 42.86 59.12 40.4 59.25C38.8686 59.3367 37.3618 59.6746 35.94 60.25C35.545 59.859 35.113 59.5074 34.65 59.2C34.48 59.2 34.07 59.5 34.19 59.7C34.31 59.9 35.44 60.83 35.44 60.95C35.4239 61.1182 35.3972 61.2852 35.36 61.45C34.416 60.741 33.4123 60.1153 32.36 59.58C32.19 59.7 31.99 60.2 32.19 60.33C33.284 61.0361 34.3297 61.8145 35.32 62.66C35.32 62.87 35.4 63.87 35.4 63.87C35.4 63.87 32.78 62.12 32.61 62.37C32.44 62.62 32.4 63.16 32.53 63.25C32.66 63.34 35.32 64.5 35.36 64.79C35.4646 66.0378 35.4646 67.2922 35.36 68.54C35.2 68.75 24.74 69.54 24.61 69.12C24.48 68.7 24.49 65.62 24.78 65.41C25.07 65.2 31.24 64.41 31.32 64.2C31.4 63.99 31.4 63.45 31.2 63.41C31 63.37 29.82 63.41 29.78 63.33C29.74 63.25 24.24 49.2 23.03 44.12C21.82 39.04 21.36 32.29 25 27.5C28.64 22.71 30.27 22.08 33.27 20.71Z" fill="#8EC480"/>
<path d="M41.32 22.6201C41.65 22.6201 41.65 23.6201 41.52 23.6201C39.1128 23.4949 36.73 24.1547 34.73 25.5001C31.36 27.8301 30.98 28.6701 30.73 28.5801C30.48 28.4901 30.03 28.3301 30.11 28.1201C31.4209 26.4004 33.1106 25.006 35.0478 24.0452C36.985 23.0844 39.1176 22.5831 41.28 22.5801L41.32 22.6201Z" fill="#1D1D1B"/>
<path d="M51.9 25.9102C52.7125 26.1273 53.4582 26.5431 54.07 27.1202C54.07 27.3302 54.07 27.7102 53.86 27.5802C53.1711 27.2933 52.5028 26.9591 51.86 26.5802C51.77 26.4102 51.69 26.0802 51.9 25.9102Z" fill="#1D1D1B"/>
<path d="M52.57 28.71C52.57 28.71 55.36 29.83 55.57 30.41C55.78 30.99 55.9 31.12 55.65 31.08C54.5458 30.6545 53.4844 30.1255 52.48 29.5C52.44 29.29 52.44 28.79 52.57 28.71Z" fill="#1D1D1B"/>
<path d="M53.07 31.8301C54.1467 32.3048 55.1777 32.8772 56.15 33.5401C56.23 33.8301 56.52 34.2501 56.15 34.0801C55.0491 33.6338 53.977 33.1195 52.94 32.5401C52.9556 32.2992 52.9993 32.0609 53.07 31.8301Z" fill="#1D1D1B"/>
<path d="M59.19 41.5801C59.36 41.6601 62.77 43.1201 62.9 43.1601C63.03 43.2001 64.9 42.2901 65.9 42.5801C66.9 42.8701 66.65 43.4101 66.56 43.6601C66.47 43.9101 66.19 44.4101 66.4 44.5801C66.61 44.7501 66.61 44.8701 66.73 44.8701C66.85 44.8701 67.27 44.2501 67.61 44.4601C67.8156 44.6573 67.9415 44.9232 67.9636 45.2072C67.9858 45.4912 67.9026 45.7734 67.73 46.0001C67.2845 46.4996 66.7484 46.9101 66.15 47.2101C65.98 47.2101 65.9 47.7101 66.07 47.8301C66.24 47.9501 67.15 48.2501 66.94 48.6201C66.829 48.8288 66.6725 49.0099 66.4822 49.15C66.2919 49.2902 66.0725 49.3859 65.8403 49.43C65.608 49.4742 65.3689 49.4657 65.1404 49.4051C64.9119 49.3445 64.6999 49.2335 64.52 49.0801C63.32 48.0801 62.94 45.4101 62.9 45.2101C62.8022 44.8707 62.6316 44.5568 62.4 44.2901C61.2148 43.9734 60.0466 43.5963 58.9 43.1601C58.9 43.0001 59.19 41.5801 59.19 41.5801Z" fill="#DDC07C"/>
<path d="M40.57 50.08C40.73 50.08 44.23 50.5 46.77 49.25C49.31 48 50.86 46 51.19 46.08C51.52 46.16 51.98 46.66 51.9 46.83C50.8402 48.6776 49.2181 50.1385 47.27 51C44.11 52.41 40.98 52.54 40.73 52.29C40.48 52.04 40.15 50.16 40.57 50.08Z" fill="#1D1D1B"/>
<path d="M38.69 29.1599C42.4 28.3399 47.77 29.3699 49.86 33.7899C51.95 38.2099 51.4 44.1199 46.57 46.8699C41.74 49.6199 35.27 49.5399 32.27 46.6599C29.27 43.7799 27.11 31.7499 38.69 29.1599Z" fill="#1D1D1B"/>
<path d="M38.93 30.4901C42.13 29.7801 46.77 30.6701 48.57 34.4901C50.37 38.3101 49.9 43.4101 45.73 45.7801C41.56 48.1501 36 48.0801 33.39 45.6001C30.78 43.1201 28.93 32.7201 38.93 30.4901Z" fill="#E6E4DA"/>
<path d="M39.46 35.9999C40.1285 35.8653 40.823 35.9625 41.4289 36.2755C42.0347 36.5884 42.5159 37.0985 42.7931 37.7216C43.0703 38.3446 43.1269 39.0435 42.9537 39.7031C42.7804 40.3627 42.3876 40.9435 41.84 41.3499C40.38 42.1799 38.43 42.1599 37.52 41.2899C37.1592 40.8499 36.9194 40.3233 36.8245 39.7622C36.7295 39.2011 36.7826 38.6249 36.9786 38.0906C37.1745 37.5564 37.5065 37.0825 37.9417 36.7158C38.3769 36.3491 38.9002 36.1024 39.46 35.9999Z" fill="#1D1D1B"/>
<path d="M40.23 36.9999C40.5118 36.9244 40.8089 36.9273 41.0891 37.0083C41.3693 37.0894 41.6221 37.2456 41.82 37.4599C42.23 37.9599 40.82 39.1199 40.65 39.0399C40.48 38.9599 39.48 37.4099 40.23 36.9999Z" fill="#E6E4DA"/>
</svg>
