<svg width="64" height="48" viewBox="0 0 64 48" fill="none" xmlns="http://www.w3.org/2000/svg">
<path d="M6.85131 21.6105C6.77878 20.4427 6.81771 19.2705 6.96756 18.1101C7.17422 18.1101 11.0492 18.2263 11.0492 18.1101C11.0492 17.9938 10.7909 12.6205 11.2688 12.3492C13.2297 12.0661 15.2046 11.8893 17.1846 11.8197V8.5905C17.1846 8.5905 12.1859 8.79717 12.1342 8.37092C12.0826 7.94467 11.3205 1.37008 11.8113 1.21508C12.3021 1.06008 19.5613 0.724249 19.5613 1.31842C19.5613 1.91258 19.768 7.24717 19.768 7.24717C19.768 7.24717 24.9346 6.808 25.1542 7.24717C25.3738 7.68633 25.2576 11.6001 25.8001 11.6518C26.3426 11.7034 34.7384 12.0263 34.7384 11.6518C34.6904 10.1225 34.7812 8.59208 35.0096 7.07925C35.268 6.87258 41.3517 6.808 41.3517 6.808C41.2588 5.08533 41.2976 3.35808 41.468 1.64133C41.7263 1.26675 49.7476 1.21508 49.7476 1.70592C49.7065 3.95165 49.547 6.19366 49.2696 8.42258C49.0501 8.42258 42.9146 8.53883 42.9146 8.53883V9.9855C42.9146 9.9855 52.6538 10.2567 52.7571 10.7476C52.8605 11.2384 52.4988 17.9034 52.7571 17.9034C53.0155 17.9034 57.6009 17.9034 57.6526 18.3813C57.7042 18.8592 57.6526 22.9022 57.6526 22.9022C57.6526 22.9022 62.8192 23.0184 62.9742 23.5997C63.1292 24.1809 62.5996 40.6626 62.0055 40.9338C59.9608 41.1665 57.8929 41.0925 55.8701 40.7143C55.7151 40.3913 55.8701 29.7351 55.5988 29.6318C55.3276 29.5284 52.318 29.6318 52.318 29.6318C52.318 29.6318 52.6409 41.2568 52.2146 41.683C51.7884 42.1093 45.2655 42.0059 45.2655 42.0059C45.2655 42.0059 45.7563 46.4751 45.4334 46.5784C45.1105 46.6818 32.4005 47.3405 32.4005 46.8497C32.4005 46.3588 32.2971 40.3913 32.788 40.1201C33.2788 39.8488 42.1526 39.8618 42.088 39.5905C42.0234 39.3193 42.088 37.2138 41.933 37.1622C41.778 37.1105 21.6667 37.3818 21.6667 37.7047C21.5588 38.4716 21.5588 39.2498 21.6667 40.0168C21.8346 40.0168 30.928 40.2363 30.9796 40.3913C31.1411 42.5626 31.1411 44.7429 30.9796 46.9143C27.0729 47.1209 23.158 47.1209 19.2513 46.9143C18.8121 46.643 18.6571 41.6313 18.6571 41.6313C18.6571 41.6313 11.5013 40.8822 11.4496 40.5076C11.398 40.133 11.4496 29.7351 11.2301 29.5801C10.5205 29.4152 9.78255 29.4152 9.07297 29.5801C9.07297 29.748 9.29256 39.9134 9.07297 40.0168C8.85339 40.1201 1.32297 40.8822 1.32297 40.0168C1.32297 39.1513 0.780473 22.7084 1.25839 22.3726C3.09779 21.9608 4.9688 21.7059 6.85131 21.6105Z" fill="#1D1D1B"/>
<path d="M3.73833 24.4133C4.78255 24.1783 5.84621 24.0399 6.91583 24C6.91583 24 7.07083 38.2083 6.91583 38.2083C6.76083 38.2083 3.84166 38.6346 3.73833 38.2083C3.63499 37.7821 3.58333 24.6846 3.73833 24.4133Z" fill="#B4E9F7"/>
<path d="M9.49912 20.1249C9.96245 19.934 10.4825 19.934 10.9458 20.1249C10.9458 20.2799 11.0491 27.3324 10.9458 27.3324C10.8425 27.3324 9.55079 27.6036 9.48621 27.3324C9.42162 27.0611 9.33121 20.2669 9.49912 20.1249Z" fill="#B4E9F7"/>
<path d="M14.2267 3.04912C14.4592 2.89412 17.1329 2.8812 17.2492 3.20412C17.4051 4.24023 17.4051 5.29385 17.2492 6.32995C16.2423 6.38124 15.2335 6.38124 14.2267 6.32995C13.9949 5.24862 13.9949 4.13045 14.2267 3.04912Z" fill="#B4E9F7"/>
<path d="M43.7283 3.33329C44.8412 3.23922 45.9615 3.29133 47.0608 3.48829C47.1329 4.4407 47.0982 5.39817 46.9575 6.34288C45.8836 6.44662 44.8022 6.44662 43.7283 6.34288C43.668 5.34059 43.668 4.33558 43.7283 3.33329Z" fill="#B4E9F7"/>
<path d="M19.3934 9.23621C20.6069 9.05147 21.8364 8.99519 23.0617 9.06829C23.0686 10.6727 23.1938 12.2744 23.4363 13.8604C23.643 13.8604 36.8309 13.757 36.8825 13.4858C36.9342 13.2145 37.1538 9.28788 37.3217 9.13288C38.3894 8.93911 39.4832 8.93911 40.5509 9.13288C40.5509 9.33954 40.383 12.2458 40.6542 12.3104C40.9255 12.375 49.9155 12.6333 50.0188 12.84C50.1221 13.0466 49.7992 24.7362 49.7992 24.7362C49.7992 24.7362 47.81 22.5791 47.655 22.7987C47.5 23.0183 47.0092 23.6641 47.2159 23.7675C48.1608 24.5405 49.0262 25.4059 49.7992 26.3508C49.8531 27.0688 49.8531 27.7899 49.7992 28.5079C48.803 27.572 47.7412 26.7087 46.6217 25.9245C46.5055 26.0795 46.1825 26.777 46.3505 26.945C46.5184 27.1129 49.7992 30.1741 49.7992 30.3808C49.7992 30.5875 49.7992 32.2666 49.7992 32.2666C48.7464 31.4396 47.6513 30.6679 46.5184 29.9545C46.3634 29.9545 45.9242 31.0912 46.1438 31.1429C47.4274 31.7769 48.6362 32.5525 49.7475 33.455C49.7475 33.7779 49.8638 35.3408 49.8638 35.3408C49.8638 35.3408 46.3634 33.0416 46.2084 33.0416C46.0534 33.0416 45.9371 34.1654 45.9371 34.1654C47.2943 35.0057 48.5893 35.9424 49.8121 36.9683C49.8504 37.5058 49.8504 38.0454 49.8121 38.5829C48.7603 37.7918 47.6457 37.0877 46.4796 36.4775C46.3117 36.6454 45.9888 37.3429 46.26 37.4462C46.5313 37.5495 48.6884 39.2804 48.4688 39.332C47.2924 39.4996 46.1009 39.5343 44.9167 39.4354C44.9167 39.2287 44.9167 34.8112 44.6971 34.7595C44.4775 34.7079 34.2605 34.4883 31.8967 34.5916C29.533 34.695 19.458 35.2375 19.303 35.625C19.148 36.0125 19.458 39.177 19.303 39.177C17.4445 39.1418 15.5897 38.9951 13.7488 38.7379C13.5938 38.5312 13.103 14.5191 13.5938 14.3641C14.0846 14.2091 19.458 14.0412 19.458 13.8733C19.458 13.7054 19.445 9.39121 19.3934 9.23621Z" fill="#78C2E5"/>
<path d="M18.5925 18.3813C21.0274 17.9585 23.5084 17.8672 25.9679 18.11C26.2045 20.5784 26.2563 23.061 26.1229 25.5371C23.6726 25.7855 21.2066 25.8416 18.7475 25.705C18.535 23.2698 18.4832 20.8233 18.5925 18.3813Z" fill="#1D1D1B"/>
<path d="M21.1241 20.3703C21.9335 20.1637 22.7818 20.1637 23.5912 20.3703C23.5912 20.5383 23.9658 23.1733 23.5912 23.3412C22.7482 23.5652 21.8661 23.6005 21.0079 23.4445C20.962 22.4183 21.0009 21.3901 21.1241 20.3703Z" fill="#7F4AB4"/>
<path d="M36.2367 17.9033C38.676 17.4797 41.1613 17.3885 43.6251 17.632C43.8722 20.0997 43.9283 22.5828 43.793 25.0591C41.3419 25.2967 38.8764 25.3485 36.4176 25.2141C36.1967 22.7838 36.1363 20.3415 36.2367 17.9033Z" fill="#1D1D1B"/>
<path d="M38.7683 19.8926C39.5803 19.6725 40.4363 19.6725 41.2483 19.8926C41.2483 20.0476 41.6229 22.6955 41.2483 22.8505C40.4063 23.0811 39.5227 23.1165 38.665 22.9538C38.6214 21.9323 38.6559 20.9089 38.7683 19.8926Z" fill="#7F4AB4"/>
<path d="M15.2084 16.1208C15.2084 16.4567 16.5 15.8496 16.5 16.1208C16.5 16.3921 16.7713 21.4037 16.6163 21.5071C16.4613 21.6104 15.3246 21.7783 15.3246 21.5071C15.3246 21.2358 15.2084 16.0175 15.2084 16.1208Z" fill="#1D1D1B"/>
<path d="M52.6667 19.6729C52.8217 19.5179 55.25 19.35 55.25 19.7892C55.25 20.2283 55.25 27.2679 54.9788 27.2679C54.0816 27.3166 53.1817 27.2777 52.2921 27.1517C52.2275 26.9967 52.4988 19.7892 52.6667 19.6729Z" fill="#B4E9F7"/>
<path d="M58.3112 25.0592C58.5696 24.9688 60.675 24.8913 60.7267 25.1626C60.7783 25.4338 60.0292 38.6217 59.8096 38.7251C59.2732 38.787 58.7314 38.787 58.195 38.7251C58.195 38.7251 58.1433 25.1109 58.3112 25.0592Z" fill="#B4E9F7"/>
<path d="M21.4471 42.0059C23.9023 41.8961 26.362 41.9522 28.8096 42.1738V45.0801L21.4342 44.9122C21.3291 43.946 21.3335 42.9711 21.4471 42.0059Z" fill="#B4E9F7"/>
<path d="M34.7384 42.2772C37.315 42.0484 39.902 41.9578 42.4884 42.0059C42.4884 42.2255 42.695 44.3826 42.4884 44.4859C42.2817 44.5893 34.5834 44.6668 34.5834 44.6668C34.5834 44.6668 34.5834 42.3288 34.7384 42.2772Z" fill="#B4E9F7"/>
</svg>
