<svg width="80" height="80" viewBox="0 0 80 80" fill="none" xmlns="http://www.w3.org/2000/svg">
<g clip-path="url(#clip0_104_36)">
<path d="M15.6625 29.6874C15.5923 28.5572 15.63 27.4229 15.775 26.2999C15.975 26.2999 19.725 26.4124 19.725 26.2999C19.725 26.1874 19.475 20.9874 19.9375 20.7249C21.8351 20.4509 23.7463 20.2798 25.6625 20.2124V17.0874C25.6625 17.0874 20.825 17.2874 20.775 16.8749C20.725 16.4624 19.9875 10.0999 20.4625 9.94991C20.9375 9.79991 27.9625 9.47491 27.9625 10.0499C27.9625 10.6249 28.1625 15.7874 28.1625 15.7874C28.1625 15.7874 33.1625 15.3624 33.375 15.7874C33.5875 16.2124 33.475 19.9999 34 20.0499C34.525 20.0999 42.65 20.4124 42.65 20.0499C42.6035 18.57 42.6914 17.0889 42.9125 15.6249C43.1625 15.4249 49.05 15.3624 49.05 15.3624C48.96 13.6953 48.9976 12.0238 49.1625 10.3624C49.4125 9.99991 57.175 9.94991 57.175 10.4249C57.1352 12.5982 56.9809 14.7679 56.7125 16.9249C56.5 16.9249 50.5625 17.0374 50.5625 17.0374V18.4374C50.5625 18.4374 59.9875 18.6999 60.0875 19.1749C60.1875 19.6499 59.8375 26.0999 60.0875 26.0999C60.3375 26.0999 64.775 26.0999 64.825 26.5624C64.875 27.0249 64.825 30.9374 64.825 30.9374C64.825 30.9374 69.825 31.0499 69.975 31.6124C70.125 32.1749 69.6125 48.1249 69.0375 48.3874C67.0588 48.6126 65.0575 48.541 63.1 48.1749C62.95 47.8624 63.1 37.5499 62.8375 37.4499C62.575 37.3499 59.6625 37.4499 59.6625 37.4499C59.6625 37.4499 59.975 48.6999 59.5625 49.1124C59.15 49.5249 52.8375 49.4249 52.8375 49.4249C52.8375 49.4249 53.3125 53.7499 53 53.8499C52.6875 53.9499 40.3875 54.5874 40.3875 54.1124C40.3875 53.6374 40.2875 47.8624 40.7625 47.5999C41.2375 47.3374 49.825 47.3499 49.7625 47.0874C49.7 46.8249 49.7625 44.7874 49.6125 44.7374C49.4625 44.6874 30 44.9499 30 45.2624C29.8955 46.0046 29.8955 46.7577 30 47.4999C30.1625 47.4999 38.9625 47.7124 39.0125 47.8624C39.1687 49.9637 39.1687 52.0736 39.0125 54.1749C35.2318 54.3749 31.4432 54.3749 27.6625 54.1749C27.2375 53.9124 27.0875 49.0624 27.0875 49.0624C27.0875 49.0624 20.1625 48.3374 20.1125 47.9749C20.0625 47.6124 20.1125 37.5499 19.9 37.3999C19.2133 37.2404 18.4992 37.2404 17.8125 37.3999C17.8125 37.5624 18.025 47.3999 17.8125 47.4999C17.6 47.5999 10.3125 48.3374 10.3125 47.4999C10.3125 46.6624 9.78746 30.7499 10.25 30.4249C12.03 30.0265 13.8407 29.7797 15.6625 29.6874Z" fill="#1D1D1B"/>
<path d="M12.65 32.4C13.6605 32.1725 14.6899 32.0386 15.725 32C15.725 32 15.875 45.75 15.725 45.75C15.575 45.75 12.75 46.1625 12.65 45.75C12.55 45.3375 12.5 32.6625 12.65 32.4Z" fill="#B4E9F7"/>
<path d="M18.2249 28.2499C18.6733 28.0651 19.1765 28.0651 19.6249 28.2499C19.6249 28.3999 19.7249 35.2249 19.6249 35.2249C19.5249 35.2249 18.2749 35.4874 18.2124 35.2249C18.1499 34.9624 18.0624 28.3874 18.2249 28.2499Z" fill="#B4E9F7"/>
<path d="M22.7999 11.7249C23.0249 11.5749 25.6124 11.5624 25.7249 11.8749C25.8758 12.8776 25.8758 13.8972 25.7249 14.8999C24.7506 14.9495 23.7743 14.9495 22.7999 14.8999C22.5756 13.8535 22.5756 12.7714 22.7999 11.7249Z" fill="#B4E9F7"/>
<path d="M51.3499 11.9998C52.4269 11.9088 53.5111 11.9592 54.5749 12.1498C54.6446 13.0715 54.6111 13.9981 54.4749 14.9123C53.4357 15.0127 52.3892 15.0127 51.3499 14.9123C51.2916 13.9423 51.2916 12.9698 51.3499 11.9998Z" fill="#B4E9F7"/>
<path d="M27.8 17.7126C28.9743 17.5338 30.1643 17.4793 31.35 17.5501C31.3567 19.1027 31.4779 20.6527 31.7125 22.1876C31.9125 22.1876 44.675 22.0876 44.725 21.8251C44.775 21.5626 44.9875 17.7626 45.15 17.6126C46.1832 17.425 47.2418 17.425 48.275 17.6126C48.275 17.8126 48.1125 20.6251 48.375 20.6876C48.6375 20.7501 57.3375 21.0001 57.4375 21.2001C57.5375 21.4001 57.225 32.7126 57.225 32.7126C57.225 32.7126 55.3 30.6251 55.15 30.8376C55 31.0501 54.525 31.6751 54.725 31.7751C55.6394 32.5232 56.4769 33.3607 57.225 34.2751C57.2772 34.9699 57.2772 35.6677 57.225 36.3626C56.261 35.4569 55.2334 34.6214 54.15 33.8626C54.0375 34.0126 53.725 34.6876 53.8875 34.8501C54.05 35.0126 57.225 37.9751 57.225 38.1751C57.225 38.3751 57.225 40.0001 57.225 40.0001C56.2061 39.1998 55.1464 38.4529 54.05 37.7626C53.9 37.7626 53.475 38.8626 53.6875 38.9126C54.9297 39.5262 56.0995 40.2767 57.175 41.1501C57.175 41.4626 57.2875 42.9751 57.2875 42.9751C57.2875 42.9751 53.9 40.7501 53.75 40.7501C53.6 40.7501 53.4875 41.8376 53.4875 41.8376C54.8009 42.6508 56.0541 43.5573 57.2375 44.5501C57.2745 45.0702 57.2745 45.5924 57.2375 46.1126C56.2196 45.347 55.141 44.6656 54.0125 44.0751C53.85 44.2376 53.5375 44.9126 53.8 45.0126C54.0625 45.1126 56.15 46.7876 55.9375 46.8376C54.7991 46.9998 53.646 47.0333 52.5 46.9376C52.5 46.7376 52.5 42.4626 52.2875 42.4126C52.075 42.3626 42.1875 42.1501 39.9 42.2501C37.6125 42.3501 27.8625 42.8751 27.7125 43.2501C27.5625 43.6251 27.8625 46.6876 27.7125 46.6876C25.914 46.6535 24.1191 46.5115 22.3375 46.2626C22.1875 46.0626 21.7125 22.8251 22.1875 22.6751C22.6625 22.5251 27.8625 22.3626 27.8625 22.2001C27.8625 22.0376 27.85 17.8626 27.8 17.7126Z" fill="#78C2E5"/>
<path d="M27.025 26.5626C29.3814 26.1534 31.7824 26.0651 34.1625 26.3001C34.3915 28.6888 34.4416 31.0914 34.3125 33.4876C31.9412 33.728 29.5548 33.7823 27.175 33.6501C26.9694 31.2935 26.9193 28.9258 27.025 26.5626Z" fill="#1D1D1B"/>
<path d="M29.475 28.4874C30.2583 28.2874 31.0792 28.2874 31.8625 28.4874C31.8625 28.6499 32.225 31.1999 31.8625 31.3624C31.0467 31.5792 30.193 31.6134 29.3625 31.4624C29.3181 30.4693 29.3558 29.4743 29.475 28.4874Z" fill="#7F4AB4"/>
<path d="M44.0999 26.0999C46.4605 25.6901 48.8657 25.6018 51.25 25.8374C51.4891 28.2255 51.5435 30.6285 51.4125 33.0249C49.0405 33.2548 46.6545 33.305 44.2749 33.1749C44.0613 30.823 44.0028 28.4595 44.0999 26.0999Z" fill="#1D1D1B"/>
<path d="M46.55 28.025C47.3358 27.812 48.1642 27.812 48.95 28.025C48.95 28.175 49.3125 30.7375 48.95 30.8875C48.1352 31.1106 47.2801 31.1449 46.45 30.9875C46.4079 29.9989 46.4413 29.0085 46.55 28.025Z" fill="#7F4AB4"/>
<path d="M23.75 24.3751C23.75 24.7001 25 24.1126 25 24.3751C25 24.6376 25.2625 29.4876 25.1125 29.5876C24.9625 29.6876 23.8625 29.8501 23.8625 29.5876C23.8625 29.3251 23.75 24.2751 23.75 24.3751Z" fill="#1D1D1B"/>
<path d="M60 27.8126C60.15 27.6626 62.5 27.5001 62.5 27.9251C62.5 28.3501 62.5 35.1626 62.2375 35.1626C61.3692 35.2097 60.4984 35.172 59.6375 35.0501C59.575 34.9001 59.8375 27.9251 60 27.8126Z" fill="#B4E9F7"/>
<path d="M65.4625 33.025C65.7125 32.9375 67.75 32.8625 67.8 33.125C67.85 33.3875 67.125 46.15 66.9125 46.25C66.3934 46.31 65.8691 46.31 65.35 46.25C65.35 46.25 65.3 33.075 65.4625 33.025Z" fill="#B4E9F7"/>
<path d="M29.7875 49.4251C32.1635 49.3188 34.5439 49.3731 36.9125 49.5876V52.4001L29.775 52.2376C29.6734 51.3026 29.6776 50.3591 29.7875 49.4251Z" fill="#B4E9F7"/>
<path d="M42.65 49.6874C45.1435 49.466 47.6471 49.3784 50.15 49.4249C50.15 49.6374 50.35 51.7249 50.15 51.8249C49.95 51.9249 42.5 51.9999 42.5 51.9999C42.5 51.9999 42.5 49.7374 42.65 49.6874Z" fill="#B4E9F7"/>
<path d="M62.4446 64.3844C62.4446 64.183 62.5638 64.0126 62.8023 63.8732C62.8023 63.8577 62.8023 63.8422 62.8023 63.8267C62.8023 63.7183 62.9398 63.5246 63.2149 63.2458C63.5084 62.9669 63.6735 62.7965 63.7102 62.7346C64.1137 62.5332 64.3796 62.417 64.508 62.386C64.6547 62.417 64.7556 62.4325 64.8106 62.4325H64.8657C65.3976 62.3241 66.0028 62.3395 66.6815 62.479C67.3784 62.6184 67.8645 62.8662 68.1396 63.2225C68.2863 63.4549 68.4331 63.7647 68.5798 64.152C68.7999 64.6942 68.9099 65.0892 68.9099 65.3371C69.02 65.7398 69.0292 66.1116 68.9375 66.4524L68.9099 66.6848C68.9099 66.7468 68.8641 66.8087 68.7724 66.8707C68.6807 66.9327 68.5706 66.9636 68.4422 66.9636C68.3322 66.9482 68.2313 66.9869 68.1396 67.0798C68.0479 67.1573 67.8553 67.196 67.5618 67.196C67.2867 67.196 67.14 67.1263 67.1217 66.9869C67.0666 66.9714 66.9749 66.9172 66.8465 66.8242C66.7365 66.7313 66.6815 66.6616 66.6815 66.6151L66.5439 66.4524C66.5439 66.4215 66.5072 66.375 66.4339 66.313C66.2688 66.0342 66.2046 65.8173 66.2413 65.6624C66.333 65.2596 66.3605 65.0427 66.3238 65.0118C66.3238 64.7794 66.2321 64.547 66.0487 64.3147C66.0303 64.2992 65.9937 64.2914 65.9386 64.2914C65.9019 64.2759 65.8469 64.2604 65.7736 64.245C65.7369 64.1365 65.7002 64.0823 65.6635 64.0823C65.5351 64.1133 65.3976 64.1985 65.2508 64.3379C64.9941 64.9421 64.8381 65.3448 64.7831 65.5462L64.6181 66.9636V68.0325C64.6547 68.5902 64.7281 68.931 64.8382 69.055C64.8382 69.1169 64.8748 69.2254 64.9482 69.3803C64.9665 69.5816 65.1591 69.9379 65.526 70.4492L65.6635 70.5886C65.7552 70.8054 65.9111 70.9139 66.1312 70.9139C66.3513 70.9139 66.6631 70.697 67.0666 70.2633C67.0483 70.2168 67.1675 70.0309 67.4243 69.7056C67.6811 69.4112 68.0846 69.2951 68.6348 69.357C68.8733 69.388 68.9925 69.5042 68.9925 69.7056C69.0108 69.845 68.9558 70.1935 68.8274 70.7512C68.644 70.9061 68.5523 71.0611 68.5523 71.216C68.4239 71.4948 68.3597 71.6497 68.3597 71.6807C68.3047 71.6807 68.2496 71.7039 68.1946 71.7504L68.0571 71.9828C67.9837 71.9828 67.9378 72.0138 67.9195 72.0757C67.7177 72.2771 67.5802 72.3778 67.5068 72.3778C67.4518 72.4243 67.3051 72.4475 67.0666 72.4475C66.7181 72.5714 66.4614 72.6334 66.2963 72.6334L65.8286 72.6566L65.526 72.5637L65.2783 72.5405C65.0582 72.463 64.884 72.4243 64.7556 72.4243C64.6456 72.4398 64.563 72.432 64.508 72.401C64.453 72.3855 64.3796 72.3468 64.2879 72.2849C64.0678 72.1299 63.9211 72.0525 63.8477 72.0525C63.7927 72.0525 63.6918 72.006 63.5451 71.9131C63.3984 71.8821 63.2791 71.8279 63.1874 71.7504L63.0774 71.518C63.1141 71.4096 63.0957 71.3476 63.0223 71.3321C62.7839 71.3321 62.6464 71.2934 62.6097 71.216L62.4446 71.0301C62.4446 70.9061 62.3712 70.7435 62.2245 70.5421L61.8944 69.7056C61.8577 69.6746 61.8577 69.6204 61.8944 69.5429V69.1247L61.5642 67.3122V66.9869C61.7293 66.4757 61.8118 66.2123 61.8118 66.1968C61.7935 65.856 61.8852 65.554 62.0869 65.2906C62.0869 64.9963 62.2062 64.6942 62.4446 64.3844Z" fill="#78C2E5"/>
<path d="M57.0369 57.1112C57.0553 57.0957 57.2296 57.0725 57.5597 57.0415C58.0917 56.964 58.4586 56.995 58.6604 57.1344C58.8805 57.2584 59.0364 57.3978 59.1282 57.5527C59.1648 58.0484 59.0823 58.6913 58.8805 59.4813C58.6787 59.9926 58.5045 60.3721 58.3577 60.6199L58.0826 60.9685C58.0275 61.0924 57.9083 61.2241 57.7248 61.3635C57.5414 61.5029 57.4038 61.5727 57.3121 61.5727C57.2387 61.5572 57.1011 61.5029 56.8994 61.41C56.7159 61.3016 56.6059 61.2241 56.5692 61.1776C56.5508 61.1312 56.5325 61.0769 56.5141 61.015L56.3766 60.5502L55.8262 59.9693C55.7162 59.7834 55.6611 59.5975 55.6611 59.4116C55.6061 58.9779 55.6703 58.6448 55.8538 58.4125C55.8538 58.3815 55.8813 58.304 55.9363 58.1801C56.028 57.8393 56.3949 57.483 57.0369 57.1112ZM56.2115 67.5445C56.2115 67.4051 56.239 67.2192 56.294 66.9868C56.3674 66.7389 56.3857 66.5685 56.349 66.4756C56.3307 66.3826 56.3307 66.1193 56.349 65.6855C56.4041 65.4997 56.4132 65.2905 56.3766 65.0582C56.2481 64.7174 56.2115 64.4695 56.2665 64.3146C56.3215 64.1597 56.4408 63.9893 56.6242 63.8034C56.8076 63.602 57.0094 63.4626 57.2296 63.3851C57.4497 63.3077 57.7799 63.3154 58.2201 63.4084C58.3302 63.4548 58.5136 63.6097 58.7705 63.8731C58.8255 63.9196 58.8897 64.0977 58.9631 64.4075C59.0548 64.7174 59.1098 65.0582 59.1282 65.4299C59.1648 65.7862 59.1924 66.3129 59.2107 67.01C59.2291 67.6916 59.2657 68.6134 59.3208 69.7752C59.3758 70.9216 59.385 71.6341 59.3483 71.913C59.3299 72.1918 59.2107 72.401 58.9906 72.5404C58.7888 72.6953 58.6054 72.7263 58.4403 72.6333C58.2935 72.5559 58.1376 72.5016 57.9725 72.4707C57.679 72.4707 57.4222 72.37 57.202 72.1686C57.1287 72.1531 56.9544 72.0834 56.6792 71.9595C56.4041 71.82 56.2298 71.5722 56.1564 71.2159C56.0647 71.061 56.0372 70.5575 56.0739 69.7055V68.869L56.2115 68.0789V67.5445Z" fill="#7F4AB4"/>
<path d="M40.8886 65.6391L41.1913 64.454L41.2188 63.9428C41.2555 63.9274 41.3013 63.8267 41.3564 63.6408C41.4481 63.0676 41.8241 62.781 42.4843 62.781C42.8328 62.7965 43.2088 62.8817 43.6123 63.0366C43.7591 63.0366 43.8691 63.0908 43.9425 63.1993C44.0342 63.2148 44.1167 63.2612 44.1901 63.3387C44.2635 63.4161 44.2726 63.5246 44.2176 63.664C44.1626 63.7879 44.1259 63.8964 44.1076 63.9893C44.1076 64.0668 44.0617 64.3379 43.97 64.8026C43.7132 65.9644 43.6032 66.7467 43.6399 67.1495L45.1255 65.2441L45.6758 64.4076C45.9876 64.2682 46.2718 64.1752 46.5286 64.1287C46.657 64.1287 46.8038 64.152 46.9688 64.1984C47.5007 64.2604 47.7667 64.3224 47.7667 64.3843L48.0968 64.5702C48.3169 64.7871 48.427 64.9653 48.427 65.1047C48.4453 65.2441 48.427 65.3835 48.3719 65.5229C48.3353 65.6469 48.2802 65.8095 48.2069 66.0109C48.2069 66.0264 48.0143 66.9094 47.6291 68.6599L48.7296 66.6615L49.0047 66.3595C49.0047 66.22 49.1881 65.9257 49.555 65.4765L49.8301 65.0582C49.8301 65.0117 49.8943 64.9343 50.0227 64.8258C50.0777 64.8258 50.1327 64.7561 50.1877 64.6167C50.4262 64.3069 50.6463 64.1132 50.848 64.0358C51.1598 63.9428 51.545 63.9273 52.0035 63.9893L52.3612 64.1287C52.4346 64.2527 52.4896 64.3224 52.5263 64.3379H52.6088C52.8289 64.5083 52.9114 64.7019 52.8564 64.9188C52.783 65.2131 52.7464 65.4068 52.7464 65.4997L52.4437 67.3122C52.407 67.3431 52.3887 67.3896 52.3887 67.4516C52.352 67.4826 52.297 67.9008 52.2236 68.7064C52.1686 69.5119 52.1411 70.302 52.1411 71.0765L52.1686 71.3553L52.3062 71.7504L52.4988 72.1222C52.5354 72.3081 52.4804 72.463 52.3337 72.5869C52.2053 72.7263 52.0402 72.796 51.8385 72.796C50.5912 72.765 49.9126 72.432 49.8026 71.7968C49.7475 71.7194 49.72 71.6342 49.72 71.5412C49.72 71.4483 49.6833 71.3089 49.61 71.123V70.8674L49.665 70.5188C49.61 70.5188 49.5825 70.271 49.5825 69.7753C49.5825 69.264 49.6008 68.9697 49.6375 68.8923C49.7109 68.6289 49.7475 68.3501 49.7475 68.0557C49.6925 68.1177 49.6008 68.2106 49.4724 68.3346C49.2156 68.5824 49.0506 68.7683 48.9772 68.8923L48.4545 69.8217C48.051 70.5963 47.7483 71.092 47.5466 71.3089C47.3448 71.5258 47.0147 71.6264 46.5561 71.611C46.0976 71.5955 45.8133 71.5412 45.7033 71.4483C45.5565 71.3863 45.4373 71.3399 45.3456 71.3089C45.2722 71.2624 45.2447 71.0843 45.2631 70.7744V70.5421L45.6207 68.6367C45.7308 68.2958 45.7858 68.0945 45.7858 68.0325L45.8959 67.4748V67.0333L45.6207 67.3586L45.3731 67.7769C45.2998 67.8389 45.2631 67.9163 45.2631 68.0093C45.1714 68.0557 45.098 68.1409 45.043 68.2649L43.97 70.1006C43.6582 70.6428 43.484 71.0533 43.4473 71.3321C43.3372 71.487 43.1997 71.6652 43.0346 71.8666C42.8879 72.0679 42.7228 72.1609 42.5394 72.1454C42.3743 72.1144 42.2551 72.0757 42.1817 72.0292C42.1083 71.9827 42.0808 71.9208 42.0992 71.8433C41.8791 71.9208 41.7048 71.8588 41.5765 71.6574L40.9162 70.9371C40.8428 70.8906 40.8061 70.8054 40.8061 70.6815C40.8611 70.4956 40.8611 70.3407 40.8061 70.2167C40.7511 70.0928 40.7327 69.9921 40.7511 69.9147C40.7144 69.7753 40.6961 69.5816 40.6961 69.3338C40.6961 69.0394 40.6685 68.8225 40.6135 68.6831C40.6135 68.5592 40.6319 68.4353 40.6685 68.3113V68.079C40.6319 67.3974 40.6869 66.9946 40.8336 66.8707C40.7236 66.7312 40.7327 66.4137 40.8611 65.918L40.8886 65.6391Z" fill="#78C2E5"/>
<path d="M31.6386 65.5227C31.6203 65.3368 31.6294 64.9805 31.6661 64.4538L31.8587 63.6638L32.409 62.6646L32.8491 62.1999C32.8491 62.0759 33.326 61.9055 34.2798 61.6887H34.3073C34.509 61.6732 34.8208 61.6887 35.2427 61.7351C35.6829 61.7816 36.1047 61.9365 36.5083 62.1999C36.9118 62.4477 37.1869 62.6569 37.3336 62.8273C37.7188 63.4779 37.8839 64.0821 37.8288 64.6397C37.8288 64.7946 37.7371 64.9805 37.5537 65.1974C37.5354 65.2284 37.3978 65.2749 37.141 65.3368C36.8843 65.3988 36.6733 65.4065 36.5083 65.3601C36.3432 65.2981 36.1506 65.2052 35.9305 65.0812C35.7104 64.9573 35.6095 64.7637 35.6279 64.5003C35.4628 64.3454 35.4261 64.144 35.5178 63.8962C35.5545 63.7103 35.527 63.5708 35.4353 63.4779L35.1051 63.3617C34.9951 63.3927 34.885 63.5321 34.775 63.78C34.6833 64.0278 34.6374 64.3299 34.6374 64.6862C34.6374 65.3368 34.83 65.9255 35.2152 66.4522C35.3436 66.6226 35.5637 66.824 35.8755 67.0563L36.3707 67.5676L37.086 68.1252L37.6087 68.7294C37.7371 68.8378 37.9114 69.0779 38.1315 69.4497C38.3699 69.806 38.4891 70.1313 38.4891 70.4257C38.4891 70.7045 38.3882 71.0608 38.1865 71.4946L37.9389 71.7966C37.9389 71.8276 37.838 71.9283 37.6363 72.0987C37.086 72.5634 36.4899 72.85 35.848 72.9585H35.6554C35.0685 73.0204 34.4907 73.0127 33.9221 72.9352L33.0692 72.7493C32.9775 72.7493 32.8767 72.7184 32.7666 72.6564C32.6566 72.6099 32.5557 72.5712 32.464 72.5402C32.0421 72.3078 31.7853 72.122 31.6936 71.9825C31.6019 71.9361 31.5377 71.7192 31.5011 71.3319C31.3727 71.0995 31.4002 70.782 31.5836 70.3792C31.5836 70.1468 31.6111 69.9687 31.6661 69.8448C32.0146 69.5039 32.464 69.4265 33.0142 69.6124C33.1976 69.6744 33.2893 69.7983 33.2893 69.9842C33.2893 70.0306 33.3169 70.1933 33.3719 70.4721C33.4452 70.7355 33.5553 70.9834 33.702 71.2157C33.8488 71.4481 34.0505 71.5643 34.3073 71.5643C34.5641 71.5643 34.83 71.4791 35.1051 71.3087C35.3986 70.8284 35.5453 70.5651 35.5453 70.5186L35.6004 70.1933C35.637 69.9609 35.5545 69.7208 35.3527 69.473C35.2977 69.2871 35.1693 69.1012 34.9676 68.9153L34.5549 68.4041L34.1422 68.0788C34.0688 68.0633 33.8396 67.9393 33.4544 67.707C33.4361 67.6605 33.3352 67.5521 33.1518 67.3817C32.9684 67.2113 32.7941 67.0021 32.629 66.7543C32.464 66.4909 32.253 66.2586 31.9963 66.0572C31.9779 65.9487 31.8587 65.7706 31.6386 65.5227Z" fill="#78C2E5"/>
<path d="M26.1138 65.2905C25.9854 64.6708 25.6278 64.3842 25.0408 64.4307C24.7107 64.4462 24.4264 64.6321 24.188 64.9884C23.8578 65.5306 23.7111 66.2354 23.7478 67.1029C23.8028 67.9549 23.8762 68.5746 23.9679 68.9619C24.0779 69.3337 24.2613 69.659 24.5181 69.9378C24.6648 70.1547 24.8849 70.2554 25.1784 70.2399C25.692 70.2399 26.068 69.8758 26.3064 69.1478L26.5265 68.5901C26.6182 68.5126 26.6365 68.4352 26.5815 68.3577C26.7649 67.9704 26.8658 67.5134 26.8842 66.9867C26.7007 66.8783 26.5907 66.7776 26.554 66.6847C26.444 66.4213 26.3889 66.2432 26.3889 66.1502C26.2605 66.0728 26.1872 65.9256 26.1688 65.7087C26.1505 65.4919 26.1322 65.3524 26.1138 65.2905ZM21.0791 67.4747L21.1892 66.2896C21.3175 65.2208 21.7027 64.3068 22.3447 63.5477C22.9683 62.9126 23.8487 62.5873 24.9858 62.5718H25.1509C26.2147 62.5718 26.985 62.7654 27.4619 63.1527C27.9755 63.4935 28.3515 63.8653 28.5899 64.2681C28.8467 64.6708 29.0118 64.9652 29.0851 65.1511C29.1585 65.3369 29.2043 65.608 29.2227 65.9643C29.2594 66.6305 29.1035 67.01 28.755 67.1029C29.0118 68.5746 28.8559 69.7442 28.2873 70.6117C28.1039 70.968 27.8379 71.3553 27.4894 71.7735C27.2326 72.0524 26.7741 72.2073 26.1138 72.2382C25.4535 72.2382 24.8758 72.2073 24.3806 72.1453C23.9037 72.0833 23.3718 71.8897 22.7849 71.5644C22.1979 71.2236 21.7852 70.6736 21.5468 69.9146C21.29 69.1865 21.1341 68.3732 21.0791 67.4747Z" fill="#78C2E5"/>
<path d="M11.8804 64.3844C11.8804 64.183 11.9996 64.0126 12.238 63.8732C12.238 63.8577 12.238 63.8422 12.238 63.8267C12.238 63.7183 12.3756 63.5246 12.6507 63.2458C12.9442 62.9669 13.1093 62.7965 13.1459 62.7346C13.5495 62.5332 13.8154 62.417 13.9438 62.386C14.0905 62.417 14.1914 62.4325 14.2464 62.4325H14.3015C14.8334 62.3241 15.4386 62.3395 16.1173 62.479C16.8142 62.6184 17.3003 62.8662 17.5754 63.2225C17.7221 63.4549 17.8689 63.7647 18.0156 64.152C18.2357 64.6942 18.3457 65.0892 18.3457 65.3371C18.4558 65.7398 18.465 66.1116 18.3732 66.4524L18.3457 66.6848C18.3457 66.7468 18.2999 66.8087 18.2082 66.8707C18.1165 66.9327 18.0064 66.9636 17.878 66.9636C17.768 66.9482 17.6671 66.9869 17.5754 67.0798C17.4837 67.1573 17.2911 67.196 16.9976 67.196C16.7225 67.196 16.5758 67.1263 16.5574 66.9869C16.5024 66.9714 16.4107 66.9172 16.2823 66.8242C16.1723 66.7313 16.1173 66.6616 16.1173 66.6151L15.9797 66.4524C15.9797 66.4215 15.943 66.375 15.8696 66.313C15.7046 66.0342 15.6404 65.8173 15.6771 65.6624C15.7688 65.2596 15.7963 65.0427 15.7596 65.0118C15.7596 64.7794 15.6679 64.547 15.4845 64.3147C15.4661 64.2992 15.4294 64.2914 15.3744 64.2914C15.3377 64.2759 15.2827 64.2604 15.2094 64.245C15.1727 64.1365 15.136 64.0823 15.0993 64.0823C14.9709 64.1133 14.8334 64.1985 14.6866 64.3379C14.4298 64.9421 14.2739 65.3448 14.2189 65.5462L14.0538 66.9636V68.0325C14.0905 68.5902 14.1639 68.931 14.2739 69.055C14.2739 69.1169 14.3106 69.2254 14.384 69.3803C14.4023 69.5816 14.5949 69.9379 14.9617 70.4492L15.0993 70.5886C15.191 70.8054 15.3469 70.9139 15.567 70.9139C15.7871 70.9139 16.0989 70.697 16.5024 70.2633C16.4841 70.2168 16.6033 70.0309 16.8601 69.7056C17.1169 69.4112 17.5204 69.2951 18.0706 69.357C18.309 69.388 18.4283 69.5042 18.4283 69.7056C18.4466 69.845 18.3916 70.1935 18.2632 70.7512C18.0798 70.9061 17.9881 71.0611 17.9881 71.216C17.8597 71.4948 17.7955 71.6497 17.7955 71.6807C17.7405 71.6807 17.6854 71.7039 17.6304 71.7504L17.4929 71.9828C17.4195 71.9828 17.3736 72.0138 17.3553 72.0757C17.1535 72.2771 17.016 72.3778 16.9426 72.3778C16.8876 72.4243 16.7409 72.4475 16.5024 72.4475C16.1539 72.5714 15.8972 72.6334 15.7321 72.6334L15.2644 72.6566L14.9617 72.5637L14.7141 72.5405C14.494 72.463 14.3198 72.4243 14.1914 72.4243C14.0814 72.4398 13.9988 72.432 13.9438 72.401C13.8888 72.3855 13.8154 72.3468 13.7237 72.2849C13.5036 72.1299 13.3569 72.0525 13.2835 72.0525C13.2285 72.0525 13.1276 72.006 12.9809 71.9131C12.8341 71.8821 12.7149 71.8279 12.6232 71.7504L12.5132 71.518C12.5498 71.4096 12.5315 71.3476 12.4581 71.3321C12.2197 71.3321 12.0821 71.2934 12.0455 71.216L11.8804 71.0301C11.8804 70.9061 11.807 70.7435 11.6603 70.5421L11.3301 69.7056C11.2935 69.6746 11.2935 69.6204 11.3301 69.5429V69.1247L11 67.3122V66.9869C11.1651 66.4757 11.2476 66.2123 11.2476 66.1968C11.2293 65.856 11.321 65.554 11.5227 65.2906C11.5227 64.9963 11.6419 64.6942 11.8804 64.3844Z" fill="#78C2E5"/>
</g>
<defs>
<clipPath id="clip0_104_36">
<rect width="80" height="80" fill="white"/>
</clipPath>
</defs>
</svg>
