<svg width="40" height="40" viewBox="0 0 40 40" fill="none" xmlns="http://www.w3.org/2000/svg">
<path d="M15.8811 4.6302V10.0171C12.4771 10.7965 10.8463 12.9262 10.6325 16.8925H15.8811V29.6559H4.46455V19.1605C4.46455 11.5753 7.72626 5.76163 15.8811 4.6302ZM15.8811 2.34448C15.7765 2.34448 15.672 2.35191 15.5668 2.3662C6.93369 3.56391 2.17883 9.52848 2.17883 19.1605V29.6553C2.17883 30.9176 3.20226 31.9411 4.46455 31.9411H15.8811C17.1434 31.9411 18.1668 30.9176 18.1668 29.6553V16.8925C18.1668 15.6302 17.1434 14.6068 15.8811 14.6068H13.3605C13.9251 13.1376 14.9788 12.5685 16.3914 12.2451C17.4303 12.0068 18.1668 11.0828 18.1668 10.0171V4.6302C18.1668 3.96963 17.8805 3.34048 17.3823 2.9062C16.964 2.54163 16.4291 2.34448 15.8811 2.34448Z" fill="#36115F"/>
<path d="M35.5354 10.3446V15.7314C32.1326 16.5108 30.5017 18.6406 30.288 22.6068H35.5354V35.3703H24.1188V24.8748C24.1188 17.2897 27.3811 11.476 35.5354 10.3446ZM35.5354 8.05884C35.4308 8.05884 35.3263 8.06627 35.2211 8.08055C26.588 9.27884 21.8331 15.2428 21.8331 24.8754V35.3703C21.8331 36.6326 22.8566 37.656 24.1188 37.656H35.5354C36.7977 37.656 37.8211 36.6326 37.8211 35.3703V22.6068C37.8211 21.3446 36.7977 20.3211 35.5354 20.3211H33.016C33.5806 18.852 34.6337 18.2828 36.0463 17.9594C37.0846 17.7211 37.8211 16.7971 37.8211 15.7314V10.3446C37.8211 9.68398 37.5348 9.05484 37.0366 8.62055C36.6177 8.25598 36.0834 8.05884 35.5354 8.05884Z" fill="#36115F"/>
<path d="M14.0474 26.0371C13.7314 26.0371 13.476 25.7816 13.476 25.4656V19.1902H10.8165C10.5005 19.1902 10.2451 18.9348 10.2451 18.6188C10.2451 18.3028 10.5005 18.0474 10.8165 18.0474H14.2451C14.5611 18.0474 14.6188 18.2931 14.6188 18.6085V25.4656C14.6188 25.7816 14.3634 26.0371 14.0474 26.0371Z" fill="#36115F"/>
<path d="M34.0474 32.8941C33.7314 32.8941 33.476 32.6387 33.476 32.3227V31.1798C33.476 30.8638 33.7314 30.6084 34.0474 30.6084C34.3634 30.6084 34.6188 30.8638 34.6188 31.1798V32.3227C34.6188 32.6387 34.3634 32.8941 34.0474 32.8941Z" fill="#36115F"/>
<path d="M34.0474 29.4657C33.7314 29.4657 33.476 29.2103 33.476 28.8943V24.9046H30.8165C30.5005 24.9046 30.2451 24.6491 30.2451 24.3331C30.2451 24.0171 30.5005 23.7617 30.8165 23.7617H34.2451C34.5611 23.7617 34.6188 24.0074 34.6188 24.3229V28.8943C34.6188 29.2103 34.3634 29.4657 34.0474 29.4657Z" fill="#36115F"/>
</svg>
