<svg width="40" height="40" viewBox="0 0 40 40" fill="none" xmlns="http://www.w3.org/2000/svg">
<path d="M24.5937 11.0251C23.6576 11.2679 22.7471 11.6007 21.875 12.0188C21.853 12.1272 21.8544 12.2391 21.8792 12.3469C21.904 12.4547 21.9516 12.5559 22.0188 12.6438C22.9771 12.4115 23.9138 12.0979 24.8187 11.7063C24.8364 11.4585 24.7555 11.2137 24.5937 11.0251ZM29.5062 7.18756C28.7362 7.41103 27.9789 7.676 27.2375 7.98131C27.1313 8.04381 27.3562 8.47506 27.4062 8.48756C28.1788 8.29099 28.9404 8.05315 29.6875 7.77506C29.725 7.69381 29.6062 7.21256 29.5062 7.18756ZM34.775 14.2563C34.6438 13.6313 32.4438 7.01881 32.0188 5.80631C31.5938 4.59381 30.4125 4.61881 29.5688 4.83131C28.0355 5.27954 26.5527 5.88483 25.1438 6.63756C24.3063 7.20006 24.75 8.83756 24.75 8.83756C24.0954 9.19655 23.4167 9.5098 22.7187 9.77506C21.1687 10.4001 9.15 15.4313 9.00625 15.5063C8.8625 15.5813 8.93125 16.4688 8.93125 16.5251C8.93125 16.5813 8.725 16.5626 8.68125 16.5251C8.6375 16.4876 8.25625 15.3251 8.25625 15.3251C8.47424 15.2571 8.68389 15.1649 8.88125 15.0501C8.70883 14.2586 8.44235 13.4907 8.0875 12.7626C7.09259 13.0931 6.12332 13.4962 5.1875 13.9688C5.36149 14.6325 5.63771 15.2651 6.00625 15.8438C6.1125 15.9001 6.8 15.6001 6.8 15.6001C6.8 15.6001 7.24375 16.7688 7.28125 16.8501C7.01381 16.9242 6.75585 17.0291 6.5125 17.1626C6.59695 17.8706 6.75403 18.568 6.98125 19.2438C7.0625 19.4001 9.48125 18.8688 9.48125 18.8688C9.48125 18.8688 9.625 19.1126 9.69375 19.2188C9.7625 19.3251 9.85 19.3126 10.0812 19.3626C10.3125 19.4126 15.825 18.6688 15.825 18.6688C15.9242 18.8481 16.037 19.0194 16.1625 19.1813C16.3438 19.4001 16.6313 19.8063 16.6313 19.8063L12.1187 30.6251C11.8589 30.6426 11.6105 30.7384 11.4062 30.9001C11.3095 30.9625 11.235 31.0541 11.1937 31.1615C11.1523 31.269 11.1461 31.3868 11.176 31.4981C11.2059 31.6093 11.2703 31.7081 11.36 31.7804C11.4497 31.8526 11.56 31.8945 11.675 31.9001C12.2375 31.9501 13.0187 32.0688 13.225 31.5501C13.4312 31.0313 12.8625 30.6751 12.8625 30.6751C12.8625 30.6751 15.2313 24.9751 15.2688 24.8938C15.3063 24.8126 17.7688 26.0688 17.7688 26.0688L17.9437 33.5126C17.8033 33.5506 17.6672 33.6029 17.5375 33.6688C17.4232 33.7337 17.3263 33.8253 17.2552 33.9358C17.1841 34.0463 17.1408 34.1724 17.1292 34.3033C17.1175 34.4342 17.1377 34.566 17.1882 34.6873C17.2386 34.8087 17.3177 34.916 17.4187 35.0001C17.9687 35.4376 19.075 35.4688 19.2562 34.6751C19.3066 34.4514 19.2781 34.2173 19.1756 34.0122C19.0731 33.8072 18.9029 33.6439 18.6938 33.5501C18.6938 33.5501 18.5375 26.3126 18.5687 26.2501C18.6 26.1876 21.0688 24.7626 21.1313 24.7626C21.1938 24.7626 24.1 30.5313 24.1 30.5313C23.8998 30.6642 23.7382 30.8474 23.6313 31.0626C23.4625 31.4188 23.4875 32.2251 24.0063 32.4313C24.525 32.6376 25.8813 32.5876 25.8813 31.5626C25.881 31.2793 25.7783 31.0057 25.5923 30.7921C25.4063 30.5784 25.1493 30.4392 24.8688 30.4001L19.15 19.5813C19.15 19.5813 19.3875 19.5313 19.5937 18.8938C19.7043 18.4242 19.6827 17.9331 19.5313 17.4751C19.9996 17.3855 20.4737 17.3291 20.95 17.3063C22.1313 17.2001 27.5375 16.8376 27.5375 16.8376C27.5375 16.8376 28.0563 17.3688 28.1625 17.4626C28.4797 17.6125 28.8337 17.6668 29.1812 17.6188C29.7125 17.5751 33.9938 16.3688 34.4125 15.9626C34.6106 15.731 34.7475 15.4536 34.8108 15.1556C34.8741 14.8575 34.8618 14.5484 34.775 14.2563ZM6.3 15.3376C6.25 15.3376 5.80625 14.3188 5.9375 14.2438C6.53241 13.9788 7.14416 13.7533 7.76875 13.5688C7.96015 13.9235 8.08112 14.3119 8.125 14.7126C7.53661 14.9751 6.92582 15.1843 6.3 15.3376ZM9.175 18.4626C8.57582 18.6149 7.96172 18.7008 7.34375 18.7188C7.25574 18.2698 7.20763 17.8138 7.2 17.3563C7.78301 17.2387 8.37446 17.1676 8.96875 17.1438C9.08721 17.5657 9.15643 17.9998 9.175 18.4376V18.4626ZM24.7375 31.0126C25 31.0438 25.3125 31.4813 25.1938 31.7438C25.075 32.0063 24.4375 32.1313 24.2438 31.8438C24.1774 31.7604 24.1376 31.6589 24.1297 31.5526C24.1218 31.4463 24.146 31.34 24.1993 31.2477C24.2525 31.1553 24.3323 31.0811 24.4283 31.0347C24.5243 30.9883 24.632 30.9719 24.7375 30.9876V31.0126ZM17.7187 25.2313C17.3659 25.0834 17.0305 24.8969 16.7188 24.6751C16.7813 24.6313 17.4438 24.4126 17.4313 24.3751C17.4188 24.3376 17.3438 23.7501 17.275 23.7501C17.2063 23.7501 15.7562 24.0626 15.7 24.0376C15.6437 24.0126 17.1313 20.0501 17.2 20.0126C17.2688 19.9751 17.5375 20.1438 17.5375 20.1438C17.5375 20.1438 17.7562 25.2313 17.7187 25.2313ZM16.7812 18.7501C16.6435 18.5639 16.558 18.3443 16.5336 18.1141C16.5091 17.8838 16.5466 17.6512 16.6422 17.4403C16.7378 17.2293 16.888 17.0478 17.0773 16.9144C17.2665 16.7809 17.488 16.7005 17.7187 16.6813C18.3875 16.5313 19.175 17.2501 18.9313 18.4876C18.6875 19.7251 17.25 19.5563 16.7812 18.7501ZM20.7125 23.8563C20.0741 23.7676 19.4316 23.7113 18.7875 23.6876C18.725 23.7751 18.6313 24.1001 18.6938 24.1376C18.7563 24.1751 20.35 24.3876 20.2688 24.4501C19.6768 24.78 19.0604 25.0642 18.425 25.3001C18.3813 25.2313 18.2563 20.2313 18.2938 20.1688C18.4108 20.0723 18.5472 20.002 18.6938 19.9626C18.75 20.0001 20.8188 23.8501 20.7125 23.8813V23.8563ZM26.625 15.8563C26.3715 15.1495 26.0665 14.4623 25.7125 13.8001C25.5813 13.8001 25.3375 13.8813 25.3375 13.9563C25.3375 14.0313 26.1313 15.9376 26.0375 15.9376C25.9438 15.9376 25.6 15.9876 25.6 15.9876C25.3479 15.3449 25.0556 14.7186 24.725 14.1126C24.6313 14.1126 24.2688 14.2313 24.2688 14.3126C24.2688 14.3938 25 15.9751 24.9438 15.9751L24.4125 16.0188C24.1365 15.4795 23.8275 14.9577 23.4875 14.4563C23.3938 14.4563 22.9813 14.5813 23.0063 14.6876C23.2569 15.1374 23.4782 15.6029 23.6687 16.0813C23.385 16.1235 23.0992 16.1506 22.8125 16.1626C22.6372 15.7662 22.4281 15.3856 22.1875 15.0251C22.0813 15.0251 21.7313 15.0251 21.7313 15.1563C21.7313 15.2876 22.175 16.2126 22.1313 16.2376C22.0875 16.2626 19.3625 16.6563 19.3625 16.6563C19.3625 16.6563 18.8938 15.7063 17.3313 16.0938C16.935 16.1538 16.5752 16.3593 16.3222 16.6701C16.0691 16.9809 15.9409 17.3748 15.9625 17.7751C15.8938 17.8126 11.4688 18.3626 11.1688 18.4001C10.8688 18.4376 10.725 18.4876 10.6875 18.4001C10.417 17.6239 10.208 16.8277 10.0625 16.0188C10.1875 15.8563 25.0625 9.76881 25.1438 9.88131C25.225 9.99381 27.3437 15.6626 27.25 15.7563C27.1562 15.8501 26.625 15.8813 26.625 15.8813V15.8563ZM33.3188 15.3126C33.1727 14.4997 32.9637 13.6994 32.6938 12.9188C32.55 12.8626 32.2125 12.9938 32.25 13.0876C32.4977 13.8549 32.694 14.6379 32.8375 15.4313C32.775 15.5313 32.275 15.7563 32.2625 15.6876C32.25 15.6188 31.6937 13.0313 31.5125 12.9438C31.3312 12.8563 31.0125 13.0751 30.9875 13.2188C30.9625 13.3626 31.7938 15.7188 31.7063 15.7938C31.5538 15.873 31.3843 15.9137 31.2125 15.9126C31.2125 15.8751 30.5063 13.2938 30.4 13.2438C30.2938 13.1938 29.8187 13.3313 29.8187 13.4126C29.8187 13.4938 30.7437 15.9626 30.6875 16.0313C30.5168 16.1261 30.3263 16.1796 30.1312 16.1876C30.1312 16.1438 29.2438 13.4251 29.15 13.4001C29.0563 13.3751 28.6063 13.4501 28.6188 13.5813C28.6313 13.7126 29.5563 16.2376 29.4625 16.2626C29.3688 16.2876 28.9813 16.4688 28.9063 16.3938C28.8313 16.3188 26.0688 9.21881 25.9375 8.71256C25.7987 8.26805 25.8163 7.7894 25.9875 7.35631C27.2727 6.76838 28.5941 6.26318 29.9438 5.84381C30.1813 5.80631 30.675 5.70006 30.8562 6.22506C31.0375 6.75006 33.8625 14.9313 33.7875 15.0876C33.7125 15.2438 33.3188 15.3376 33.3188 15.3376V15.3126Z" fill="#D6D2F5"/>
</svg>
