<svg width="40" height="40" viewBox="0 0 40 40" fill="none" xmlns="http://www.w3.org/2000/svg">
<path d="M14.1188 7.57489C13.6158 8.00637 13.2091 8.5387 12.925 9.13739C12.6842 9.71212 12.5263 10.3182 12.4563 10.9374C12.4563 11.0124 12.8187 11.0124 12.95 10.9874C13.0812 10.9624 12.95 10.6999 13.2625 9.58114C13.4819 8.89523 13.8863 8.28317 14.4313 7.81239C14.5125 7.68114 14.2688 7.49989 14.1188 7.57489ZM19.175 6.45614C14.6688 7.63114 14.4062 11.2999 16.2812 13.9061C18.1562 16.5124 23.75 14.9999 24.175 11.1186C24.2739 10.4532 24.2096 9.77372 23.9875 9.13868C23.7655 8.50365 23.3924 7.93212 22.9004 7.47332C22.4084 7.01451 21.8122 6.6822 21.1632 6.50501C20.5142 6.32781 19.8319 6.31104 19.175 6.45614ZM23.025 11.0311C22.7125 13.9374 18.55 15.0374 17.1563 13.1061C15.7625 11.1749 15.9562 8.43739 19.3062 7.56864C19.7943 7.46119 20.3011 7.47382 20.7832 7.60544C21.2653 7.73706 21.7083 7.98373 22.074 8.32428C22.4398 8.66482 22.7174 9.08905 22.883 9.56054C23.0487 10.032 23.0974 10.5367 23.025 11.0311ZM19.5062 9.19989C17.85 9.63114 17.7562 10.9749 18.4437 11.9249C19.1312 12.8749 21.1812 12.3374 21.3375 10.9061C21.3738 10.6625 21.3502 10.4136 21.2689 10.1811C21.1875 9.94858 21.0509 9.73932 20.8706 9.57139C20.6904 9.40346 20.472 9.28189 20.2343 9.21717C19.9966 9.15244 19.7467 9.14651 19.5062 9.19989ZM22.5813 16.7436C21.7079 17.612 20.5315 18.1073 19.3 18.1249C18.6754 18.1696 18.0498 18.0514 17.4845 17.7819C16.9192 17.5124 16.4336 17.1008 16.075 16.5874C15.8625 16.5874 15.45 17.1061 15.45 17.2124C15.45 17.3186 16.65 18.9811 19.2 19.1374C21.75 19.2936 23.0812 17.8374 23.1312 17.5749C23.1812 17.3124 22.7938 16.7186 22.5813 16.7436ZM31.5937 3.53739C31.3858 3.57902 31.1881 3.6616 31.0123 3.78031C30.8365 3.89903 30.6861 4.05151 30.5698 4.2289C30.4535 4.40628 30.3736 4.60503 30.3348 4.81357C30.296 5.02211 30.299 5.23628 30.3437 5.44364L26.8812 7.75614C26.5183 7.21 26.0971 6.70494 25.625 6.24989C23.5608 4.89409 21.1158 4.23684 18.65 4.37489C16.467 4.47162 14.3939 5.36037 12.8188 6.87489L9.6125 5.44364C9.6125 5.44364 9.925 4.55614 9.3 4.11239C8.8644 3.84716 8.3569 3.72448 7.84825 3.76146C7.3396 3.79843 6.85517 3.99321 6.4625 4.31864C6.25074 4.52123 6.09125 4.77215 5.99773 5.0499C5.9042 5.32764 5.87942 5.62392 5.92551 5.91334C5.97159 6.20276 6.08717 6.47669 6.26234 6.71165C6.43751 6.94661 6.66703 7.13559 6.93125 7.26239C7.20944 7.41033 7.52866 7.46235 7.83942 7.41037C8.15018 7.35838 8.43511 7.20531 8.65 6.97489L11.4875 8.53739C11.2063 8.94139 10.9794 9.38056 10.8125 9.84364C10.554 10.5964 10.3718 11.3732 10.2688 12.1624C10.2688 12.1624 9.76875 12.0811 8.75625 13.0436C7.74375 14.0061 7.86875 15.4686 8.55 16.0374C9.23125 16.6061 10.8938 16.5624 10.8938 16.5624C10.8938 16.5624 10.9438 18.1249 13.05 20.1811C15.1562 22.2374 19.1187 22.0561 19.1187 22.0561V23.8249C19.1187 23.8249 18.9125 23.8749 18.7312 23.9311C18.0847 24.1602 17.5342 24.6006 17.1687 25.1811C16.5125 26.0874 15.9187 29.2686 15.9187 29.2686C15.5478 29.3721 15.2194 29.591 14.9812 29.8936C14.6437 30.3874 14.5375 31.5874 15.3188 32.0811C15.5163 32.1995 15.7402 32.2666 15.9703 32.2764C16.2004 32.2861 16.4292 32.2382 16.636 32.1369C16.8428 32.0357 17.0211 31.8844 17.1545 31.6967C17.2879 31.509 17.3723 31.291 17.4 31.0624C17.4248 30.7608 17.3589 30.4586 17.2108 30.1947C17.0627 29.9308 16.8391 29.7171 16.5688 29.5811C16.5688 29.5811 16.5687 29.3186 16.7 28.5624C16.9082 27.3202 17.3676 26.1335 18.05 25.0749C18.7312 24.2436 19.0437 24.5811 19.0437 24.5811C19.0437 24.5811 18.025 29.8186 18 31.5624C17.9699 32.0363 18.0621 32.51 18.2679 32.9379C18.4736 33.3659 18.786 33.7338 19.175 34.0061V34.7874C19.175 34.7874 19.0187 34.6874 18.2062 34.8686C18.0527 34.9085 17.9119 34.9869 17.7972 35.0964C17.6825 35.2059 17.5976 35.3429 17.5507 35.4944C17.5037 35.6458 17.4962 35.8068 17.5289 35.962C17.5616 36.1172 17.6334 36.2615 17.7375 36.3811C18.1062 36.7436 19.3312 36.5061 19.6437 36.3249C19.9562 36.1436 19.6437 34.1374 19.6437 34.1374L20.2687 34.2436C20.2687 34.2436 20.375 35.9124 20.375 36.0124C20.375 36.1124 20.5 36.3499 21.2313 36.4811C21.9625 36.6124 23 36.0124 22.7187 35.2311C22.4375 34.4499 20.9437 34.6624 20.9437 34.6624L20.8937 34.0374C21.4743 33.501 21.8592 32.7861 21.9875 32.0061C22.1437 30.7561 20.9437 25.1311 20.9687 25.0249C20.9937 24.9186 21.2062 24.8686 21.4937 25.1061C22.0543 25.9289 22.5575 26.7893 23 27.6811C23.139 27.8233 23.3054 27.9359 23.489 28.0122C23.6727 28.0885 23.8699 28.1268 24.0687 28.1249C24.4375 28.0749 26.4937 26.0686 26.4937 26.0686C26.4937 26.0686 28.1812 26.2499 28.625 24.9999C29.0687 23.7499 28.0812 22.4999 26.5187 23.2561C24.9562 24.0124 26.1 25.6749 26.1 25.6749C25.9574 25.9018 25.7703 26.0974 25.55 26.2499C25.1625 26.5374 24.2 27.3936 23.9375 27.3936C23.675 27.3936 23.025 26.2499 22.5 25.3124C22.1451 24.7022 21.5669 24.2539 20.8875 24.0624L20.675 21.7936C22.3893 21.5557 24.0326 20.9525 25.4937 20.0249C26.2089 19.6027 26.8268 19.0343 27.3072 18.3568C27.7875 17.6794 28.1195 16.9082 28.2812 16.0936C28.2812 16.0936 30.7812 15.7561 30.8562 13.5936C30.9312 11.4311 28.6187 11.5374 28.6187 11.5374C28.6187 11.5374 28.6187 11.1436 28.5437 10.7811C28.429 10.3742 28.2719 9.98033 28.075 9.60614L31.4125 6.87489C31.6064 6.99197 31.8172 7.0784 32.0375 7.13114C32.3224 7.1684 32.612 7.1397 32.884 7.04727C33.156 6.95483 33.4031 6.80114 33.6063 6.59803C33.8094 6.39493 33.9632 6.14786 34.0558 5.87589C34.1483 5.60392 34.1771 5.31433 34.1399 5.02946C34.1028 4.7446 34.0006 4.47208 33.8415 4.23294C33.6823 3.9938 33.4702 3.79445 33.2218 3.65026C32.9733 3.50607 32.695 3.4209 32.4084 3.40133C32.1218 3.38176 31.8345 3.42831 31.5687 3.53739H31.5937ZM7.21875 6.66239C7.01974 6.5501 6.85713 6.38305 6.75025 6.18108C6.64336 5.97911 6.59669 5.75071 6.61578 5.523C6.63486 5.29529 6.7189 5.07785 6.85791 4.89649C6.99693 4.71513 7.18507 4.57748 7.4 4.49989C7.54986 4.43373 7.71293 4.40291 7.8766 4.40981C8.04027 4.41671 8.20016 4.46114 8.34393 4.53966C8.48769 4.61819 8.61148 4.72872 8.70573 4.8627C8.79999 4.99668 8.86218 5.15054 8.8875 5.31239C8.93141 5.52602 8.91564 5.74762 8.84192 5.95288C8.7682 6.15814 8.63937 6.33913 8.46957 6.476C8.29977 6.61288 8.09555 6.70034 7.87932 6.72881C7.66309 6.75728 7.44319 6.72565 7.24375 6.63739L7.21875 6.66239ZM10.425 15.7499C10.2938 15.7499 9.35625 15.8561 9.175 14.9999C9.06325 14.6235 9.10094 14.2186 9.28022 13.8694C9.45951 13.5201 9.76657 13.2535 10.1375 13.1249C10.275 13.0811 10.2125 14.0124 10.3438 14.6624C10.475 15.3124 10.5813 15.7249 10.45 15.7249L10.425 15.7499ZM16.775 30.9374C16.7587 31.0555 16.7158 31.1683 16.6495 31.2674C16.5833 31.3665 16.4954 31.4493 16.3924 31.5095C16.2895 31.5697 16.1743 31.6057 16.0554 31.6149C15.9366 31.624 15.8172 31.6061 15.7062 31.5624C15.3187 31.3249 15.1625 30.2311 15.9187 30.0749C16.3562 29.9999 16.775 30.4686 16.775 30.9374ZM27.2187 23.7499C27.4424 23.7499 27.6582 23.832 27.8252 23.9806C27.9923 24.1293 28.099 24.3341 28.125 24.5561C28.125 25.0249 27.1875 25.4936 26.875 25.3374C26.5625 25.1811 26.4375 23.9061 27.2187 23.7499ZM28.8062 13.6686C28.7633 13.2719 28.7633 12.8716 28.8062 12.4749C28.9422 12.4409 29.0839 12.4368 29.2216 12.463C29.3593 12.4891 29.4897 12.5447 29.6038 12.6262C29.7179 12.7076 29.8129 12.8127 29.8824 12.9345C29.9519 13.0562 29.9942 13.1915 30.0062 13.3311C30.1875 14.3499 28.6 15.1561 28.525 15.0499C28.45 14.9436 28.7812 14.1624 28.8062 13.6686ZM9.43125 6.74364C9.38125 6.63739 9.64375 6.11864 9.64375 6.11864C9.76875 6.11864 12.2187 7.21239 12.1125 7.41864C12.0062 7.62489 11.8 7.96864 11.725 7.91864C11.65 7.86864 9.4875 6.87489 9.43125 6.74364ZM20.9687 32.3686C20.7062 32.8874 19.3562 33.2561 19.0937 32.3686C18.8312 31.4811 19.7187 23.1249 20 23.1249C20.0875 23.0874 21.25 31.8749 20.9687 32.3686ZM27.375 14.7124C27.2998 15.16 27.1696 15.5966 26.9875 16.0124C26.6912 15.5216 26.3502 15.0592 25.9687 14.6311C25.8375 14.6311 25.5 14.8686 25.6312 14.9999C26.0819 15.5235 26.466 16.1008 26.775 16.7186C26.725 16.8749 26.2812 17.5999 26.2812 17.5999C25.9403 17.0191 25.558 16.4635 25.1375 15.9374C25.0312 15.9374 24.6937 16.1936 24.7437 16.2749C25.1939 16.8878 25.5872 17.5405 25.9187 18.2249C25.8375 18.3561 25.2937 18.9061 25.2375 18.7999C24.9829 18.2957 24.6947 17.8092 24.375 17.3436C24.2937 17.3436 24.0062 17.4749 24.0625 17.5999C24.1187 17.7249 25.025 19.1374 24.9187 19.2686C24.7248 19.4432 24.5156 19.6001 24.2937 19.7374C24.2937 19.7374 23.775 18.4874 23.6687 18.4874C23.5625 18.4874 23.0937 18.7249 23.15 18.7999C23.2062 18.8749 23.825 19.9186 23.7187 20.0499C23.6083 20.1439 23.4866 20.2237 23.3562 20.2874L22.6375 19.3749L22.2688 19.6061C22.2688 19.6061 22.8438 20.4936 22.7375 20.5186L22.2187 20.6749C22.2187 20.6749 21.9063 19.9749 21.8 19.9436C21.6938 19.9124 21.2812 19.9436 21.3625 20.0249C21.4923 20.2689 21.6051 20.5216 21.7 20.7811C20.0939 21.1115 18.4373 21.1115 16.8313 20.7811C15.5111 20.4928 14.3081 19.8142 13.3785 18.8334C12.449 17.8526 11.8358 16.6149 11.6188 15.2811C11.1027 12.86 11.513 10.3333 12.7688 8.19989C13.675 6.74364 15.2688 6.11864 16.8813 5.54364C18.7562 4.86864 22.1938 5.12489 24.925 6.94989C27.6562 8.77489 27.4562 14.1124 27.375 14.7124ZM30.7375 6.66239C30.6062 6.79364 27.95 9.06239 27.8687 8.93114C27.7875 8.79989 27.5 8.12489 27.5 8.12489C27.6062 8.07489 30.2625 5.96239 30.4187 6.11864C30.575 6.27489 30.8625 6.53739 30.7375 6.66239ZM31.7 6.24989C31.5058 6.13723 31.3476 5.97183 31.2436 5.77289C31.1396 5.57395 31.0941 5.3496 31.1124 5.12587C31.1307 4.90213 31.2121 4.68817 31.3471 4.50879C31.482 4.32941 31.6651 4.19197 31.875 4.11239C32.024 4.04615 32.1862 4.0151 32.3492 4.02164C32.5121 4.02817 32.6713 4.07212 32.8145 4.15007C32.9577 4.22802 33.0811 4.33789 33.175 4.47117C33.269 4.60444 33.331 4.75755 33.3562 4.91864C33.4056 5.13471 33.3933 5.36033 33.3205 5.5697C33.2477 5.77906 33.1175 5.96373 32.9447 6.10259C32.772 6.24145 32.5636 6.32891 32.3435 6.35495C32.1234 6.381 31.9004 6.34459 31.7 6.24989Z" fill="#D6D2F5"/>
</svg>
